<svg id="Fnac_Logo" xmlns="http://www.w3.org/2000/svg" width="150" height="150" viewBox="0 0 150 150">
  <path id="Tracé_20" data-name="Tracé 20" d="M287.471,195.238c0,2.972,2.869,3.7,6.087,3.7,3.358,0,9.225-1.227,9.225-9.057-1.68,1.178-6.357,1.234-9.435,1.682C290.269,192.07,287.471,192.322,287.471,195.238Z" transform="translate(-200.886 -134.632)" fill="#ebb300"/>
  <path id="Tracé_21" data-name="Tracé 21" d="M43.352,40.092h4.27v3.987h.188c2.254-3.212,8.791-4.67,12.548-4.67,9.455,0,15.027,4.614,15.027,11.7V68.725H66.493V52.553c0-4.708-5.008-7.124-9.141-7.124-4.821,0-9.292,2.472-9.292,8.287V68.725H39.168V45.353H25.494V68.725H17.2V45.353H13.517L0,128.549,129.114,150,142.97,64.719c-3.08,3.125-7.926,4.782-13.914,4.782-10.889,0-18.219-6.092-18.219-14.676,0-8.917,6.7-15.507,18.428-15.507,7.525,0,14.5,2.77,16.458,8.458L150,21.451,20.886,0,14.373,40.092H17.2V37.876c0-5.04,4.684-10.891,14.9-10.891,6.813,0,15.228,1.747,15.228,10.483H39.52c0-3.106-5.009-4.271-7.414-4.271-3.406,0-6.612,2.8-6.612,5.177v1.717H43.352Zm66.969,29.021H101.63V65.955c-3.209,2.6-8.317,3.545-12.808,3.545-6.987,0-12.548-2.713-12.548-8.584,0-6.48,6.274-8.031,12.548-8.7,6.2-.72,11.978-.554,11.978-3.766,0-3.378-2.995-3.877-6.56-3.877-3.85,0-6.345,1.218-6.7,4.32H77.414c.57-7.365,8.453-9.581,16.724-9.581,7.343,0,16.184,2.438,16.184,9.306v20.49Z" fill="#ebb300"/>
  <path id="Tracé_22" data-name="Tracé 22" d="M410.059,155.361c-6.233,0-8.288,5.16-8.288,9.423,0,4.15,1.986,9.142,8.082,9.142,4.521,0,7.124-2.356,7.74-5.89h7.091l1.21-7.684h-8.643C416.635,157.1,414.1,155.361,410.059,155.361Z" transform="translate(-280.473 -110.199)" fill="#ebb300"/>
</svg>
